<svg width="208" height="45" viewBox="0 0 208 45" fill="none"
  xmlns="http://www.w3.org/2000/svg">
  <mask id="path-1-outside-1_101_4" maskUnits="userSpaceOnUse" x="0.76136" y="0.511353" width="208" height="44" fill="black">
    <rect fill="white" x="0.76136" y="0.511353" width="208" height="44"/>
    <path d="M31.0341 14.8182H23.0227C22.9659 14.1553 22.8144 13.554 22.5682 13.0142C22.3314 12.4744 22 12.0104 21.5739 11.6221C21.1572 11.2244 20.6506 10.9214 20.054 10.7131C19.4574 10.4953 18.7803 10.3864 18.0227 10.3864C16.697 10.3864 15.5748 10.7083 14.6562 11.3523C13.7472 11.9962 13.0559 12.9195 12.5824 14.1221C12.1184 15.3248 11.8864 16.7689 11.8864 18.4545C11.8864 20.2348 12.1231 21.7263 12.5966 22.929C13.0795 24.1221 13.7756 25.0218 14.6847 25.6278C15.5937 26.2244 16.6875 26.5227 17.9659 26.5227C18.6951 26.5227 19.3485 26.4328 19.9261 26.2528C20.5038 26.0634 21.0057 25.7936 21.4318 25.4432C21.858 25.0928 22.2036 24.6714 22.4687 24.179C22.7434 23.6771 22.928 23.1136 23.0227 22.4886L31.0341 22.5454C30.9394 23.7765 30.5937 25.0312 29.9972 26.3096C29.4006 27.5786 28.553 28.7528 27.4545 29.8324C26.3655 30.9025 25.0161 31.7642 23.4062 32.4176C21.7964 33.071 19.9261 33.3977 17.7955 33.3977C15.125 33.3977 12.7292 32.8248 10.608 31.679C8.49621 30.5331 6.82481 28.8475 5.59375 26.6221C4.37216 24.3968 3.76136 21.6742 3.76136 18.4545C3.76136 15.2159 4.38636 12.4886 5.63636 10.2727C6.88636 8.04734 8.57197 6.36647 10.6932 5.2301C12.8144 4.08427 15.1818 3.51135 17.7955 3.51135C19.6326 3.51135 21.3229 3.7623 22.8665 4.26419C24.41 4.76609 25.7642 5.49999 26.929 6.4659C28.0937 7.42234 29.0312 8.60132 29.7415 10.0028C30.4517 11.4043 30.8826 13.0095 31.0341 14.8182Z"/>
    <path d="M31.9308 33V11.1818H39.5445V15.3295H39.7717C40.1695 13.7954 40.7992 12.6733 41.6609 11.9631C42.5321 11.2528 43.5501 10.8977 44.7149 10.8977C45.0558 10.8977 45.392 10.9261 45.7234 10.9829C46.0643 11.0303 46.391 11.1013 46.7035 11.196V17.8864C46.3153 17.7538 45.8371 17.6543 45.2689 17.5881C44.7007 17.5218 44.213 17.4886 43.8058 17.4886C43.0388 17.4886 42.3475 17.6638 41.732 18.0142C41.1259 18.3551 40.6477 18.8381 40.2973 19.4631C39.9469 20.0786 39.7717 20.803 39.7717 21.6364V33H31.9308Z"/>
    <path d="M55.7359 33.3977C53.3685 33.3977 51.342 32.929 49.6564 31.9915C47.9708 31.0445 46.6782 29.7282 45.7785 28.0426C44.8789 26.3475 44.4291 24.3826 44.4291 22.1477C44.4291 19.9129 44.8789 17.9526 45.7785 16.267C46.6782 14.572 47.9708 13.2557 49.6564 12.3182C51.342 11.3712 53.3685 10.8977 55.7359 10.8977C58.1034 10.8977 60.1299 11.3712 61.8155 12.3182C63.5011 13.2557 64.7937 14.572 65.6933 16.267C66.5929 17.9526 67.0428 19.9129 67.0428 22.1477C67.0428 24.3826 66.5929 26.3475 65.6933 28.0426C64.7937 29.7282 63.5011 31.0445 61.8155 31.9915C60.1299 32.929 58.1034 33.3977 55.7359 33.3977ZM55.7928 27.6023C56.4556 27.6023 57.0286 27.3797 57.5115 26.9346C57.9945 26.4896 58.3685 25.8551 58.6337 25.0312C58.8988 24.2074 59.0314 23.2273 59.0314 22.0909C59.0314 20.9451 58.8988 19.965 58.6337 19.1506C58.3685 18.3267 57.9945 17.6922 57.5115 17.2471C57.0286 16.8021 56.4556 16.5795 55.7928 16.5795C55.092 16.5795 54.4907 16.8021 53.9888 17.2471C53.4869 17.6922 53.1034 18.3267 52.8382 19.1506C52.5731 19.965 52.4405 20.9451 52.4405 22.0909C52.4405 23.2273 52.5731 24.2074 52.8382 25.0312C53.1034 25.8551 53.4869 26.4896 53.9888 26.9346C54.4907 27.3797 55.092 27.6023 55.7928 27.6023Z"/>
    <path d="M70.8976 33L65.443 11.1818H73.2839L75.7839 24.4773H75.9544L78.7385 11.1818H86.3521L89.2499 24.3636H89.4203L91.8067 11.1818H99.6476L94.193 33H85.7271L82.6589 21.2954H82.4317L79.3635 33H70.8976Z"/>
    <path d="M106.741 33.2841C105.188 33.2841 103.758 32.8769 102.451 32.0625C101.154 31.2481 100.112 30.0123 99.3263 28.3551C98.5498 26.6979 98.1615 24.6098 98.1615 22.0909C98.1615 19.4583 98.5687 17.3182 99.3831 15.6704C100.207 14.0227 101.268 12.8153 102.565 12.0483C103.872 11.2812 105.245 10.8977 106.684 10.8977C107.764 10.8977 108.711 11.0871 109.525 11.4659C110.34 11.8352 111.021 12.3324 111.571 12.9574C112.12 13.5729 112.537 14.25 112.821 14.9886H112.934V3.90908H120.775V33H112.991V29.4204H112.821C112.518 30.1591 112.082 30.822 111.514 31.4091C110.955 31.9867 110.273 32.446 109.468 32.7869C108.673 33.1184 107.764 33.2841 106.741 33.2841ZM109.639 27.2614C110.358 27.2614 110.974 27.053 111.485 26.6364C112.006 26.2102 112.404 25.6136 112.679 24.8466C112.963 24.0701 113.105 23.1515 113.105 22.0909C113.105 21.0114 112.963 20.0881 112.679 19.321C112.404 18.5445 112.006 17.9526 111.485 17.5454C110.974 17.1288 110.358 16.9204 109.639 16.9204C108.919 16.9204 108.304 17.1288 107.792 17.5454C107.29 17.9526 106.902 18.5445 106.627 19.321C106.362 20.0881 106.23 21.0114 106.23 22.0909C106.23 23.1704 106.362 24.0985 106.627 24.875C106.902 25.642 107.29 26.2339 107.792 26.6506C108.304 27.0578 108.919 27.2614 109.639 27.2614Z"/>
    <path d="M137.393 13C137.317 12.053 136.962 11.3144 136.327 10.7841C135.702 10.2538 134.751 9.98863 133.472 9.98863C132.658 9.98863 131.99 10.0881 131.469 10.2869C130.958 10.4763 130.579 10.7367 130.333 11.0682C130.087 11.3996 129.959 11.7784 129.95 12.2045C129.931 12.5549 129.992 12.8721 130.134 13.1562C130.286 13.4309 130.522 13.6818 130.844 13.9091C131.166 14.1269 131.578 14.3257 132.08 14.5057C132.582 14.6856 133.179 14.8466 133.87 14.9886L136.256 15.5C137.866 15.8409 139.244 16.2907 140.39 16.8494C141.536 17.4081 142.473 18.0663 143.202 18.8239C143.932 19.572 144.467 20.4148 144.808 21.3523C145.158 22.2898 145.338 23.3125 145.347 24.4204C145.338 26.3333 144.86 27.9526 143.913 29.2784C142.966 30.6042 141.611 31.6127 139.85 32.304C138.098 32.9953 135.991 33.3409 133.529 33.3409C131.001 33.3409 128.794 32.9668 126.91 32.2187C125.035 31.4706 123.576 30.3201 122.535 28.767C121.503 27.2045 120.982 25.2064 120.972 22.7727H128.472C128.52 23.6629 128.742 24.411 129.14 25.017C129.538 25.6231 130.096 26.0824 130.816 26.3949C131.545 26.7074 132.412 26.8636 133.415 26.8636C134.258 26.8636 134.964 26.7595 135.532 26.5511C136.1 26.3428 136.531 26.054 136.825 25.6846C137.118 25.3153 137.27 24.8939 137.279 24.4204C137.27 23.9754 137.123 23.5871 136.839 23.2557C136.564 22.9148 136.11 22.6117 135.475 22.3466C134.841 22.072 133.984 21.8163 132.904 21.5795L130.006 20.9545C127.431 20.3958 125.399 19.4631 123.913 18.1562C122.435 16.84 121.701 15.0454 121.711 12.7727C121.701 10.9261 122.194 9.31154 123.188 7.92897C124.192 6.53692 125.579 5.45264 127.35 4.67613C129.13 3.89961 131.171 3.51135 133.472 3.51135C135.821 3.51135 137.852 3.90435 139.566 4.69033C141.28 5.47632 142.601 6.58427 143.529 8.01419C144.467 9.43465 144.94 11.0966 144.95 13H137.393Z"/>
    <path d="M145.665 41.1818V11.1818H153.449V14.9886H153.62C153.904 14.25 154.321 13.5729 154.87 12.9574C155.419 12.3324 156.101 11.8352 156.915 11.4659C157.73 11.0871 158.677 10.8977 159.756 10.8977C161.195 10.8977 162.564 11.2812 163.861 12.0483C165.168 12.8153 166.229 14.0227 167.043 15.6704C167.867 17.3182 168.279 19.4583 168.279 22.0909C168.279 24.6098 167.886 26.6979 167.1 28.3551C166.323 30.0123 165.282 31.2481 163.975 32.0625C162.677 32.8769 161.252 33.2841 159.699 33.2841C158.677 33.2841 157.763 33.1184 156.958 32.7869C156.162 32.446 155.481 31.9867 154.912 31.4091C154.354 30.822 153.923 30.1591 153.62 29.4204H153.506V41.1818H145.665ZM153.336 22.0909C153.336 23.1515 153.473 24.0701 153.748 24.8466C154.032 25.6136 154.429 26.2102 154.941 26.6364C155.462 27.053 156.082 27.2614 156.802 27.2614C157.521 27.2614 158.132 27.0578 158.634 26.6506C159.145 26.2339 159.534 25.642 159.799 24.875C160.073 24.0985 160.211 23.1704 160.211 22.0909C160.211 21.0114 160.073 20.0881 159.799 19.321C159.534 18.5445 159.145 17.9526 158.634 17.5454C158.132 17.1288 157.521 16.9204 156.802 16.9204C156.082 16.9204 155.462 17.1288 154.941 17.5454C154.429 17.9526 154.032 18.5445 153.748 19.321C153.473 20.0881 153.336 21.0114 153.336 22.0909Z"/>
    <path d="M179.275 33.3977C176.908 33.3977 174.881 32.929 173.195 31.9915C171.51 31.0445 170.217 29.7282 169.318 28.0426C168.418 26.3475 167.968 24.3826 167.968 22.1477C167.968 19.9129 168.418 17.9526 169.318 16.267C170.217 14.572 171.51 13.2557 173.195 12.3182C174.881 11.3712 176.908 10.8977 179.275 10.8977C181.642 10.8977 183.669 11.3712 185.355 12.3182C187.04 13.2557 188.333 14.572 189.232 16.267C190.132 17.9526 190.582 19.9129 190.582 22.1477C190.582 24.3826 190.132 26.3475 189.232 28.0426C188.333 29.7282 187.04 31.0445 185.355 31.9915C183.669 32.929 181.642 33.3977 179.275 33.3977ZM179.332 27.6023C179.995 27.6023 180.568 27.3797 181.051 26.9346C181.534 26.4896 181.908 25.8551 182.173 25.0312C182.438 24.2074 182.57 23.2273 182.57 22.0909C182.57 20.9451 182.438 19.965 182.173 19.1506C181.908 18.3267 181.534 17.6922 181.051 17.2471C180.568 16.8021 179.995 16.5795 179.332 16.5795C178.631 16.5795 178.03 16.8021 177.528 17.2471C177.026 17.6922 176.642 18.3267 176.377 19.1506C176.112 19.965 175.98 20.9451 175.98 22.0909C175.98 23.2273 176.112 24.2074 176.377 25.0312C176.642 25.8551 177.026 26.4896 177.528 26.9346C178.03 27.3797 178.631 27.6023 179.332 27.6023Z"/>
    <path d="M203.975 11.1818V16.8636H189.6V11.1818H203.975ZM192.384 5.95454H200.225V25.9829C200.225 26.286 200.277 26.5417 200.381 26.75C200.485 26.9489 200.646 27.1004 200.864 27.2045C201.082 27.2992 201.361 27.3466 201.702 27.3466C201.939 27.3466 202.214 27.3182 202.526 27.2614C202.848 27.2045 203.085 27.1572 203.236 27.1193L204.373 32.6307C204.022 32.7348 203.52 32.8627 202.867 33.0142C202.223 33.1657 201.456 33.2651 200.566 33.3125C198.767 33.4072 197.256 33.2225 196.035 32.7585C194.813 32.285 193.895 31.5417 193.279 30.5284C192.663 29.5151 192.365 28.2462 192.384 26.7216V5.95454Z"/>
  </mask>
  <path d="M31.0341 14.8182H23.0227C22.9659 14.1553 22.8144 13.554 22.5682 13.0142C22.3314 12.4744 22 12.0104 21.5739 11.6221C21.1572 11.2244 20.6506 10.9214 20.054 10.7131C19.4574 10.4953 18.7803 10.3864 18.0227 10.3864C16.697 10.3864 15.5748 10.7083 14.6562 11.3523C13.7472 11.9962 13.0559 12.9195 12.5824 14.1221C12.1184 15.3248 11.8864 16.7689 11.8864 18.4545C11.8864 20.2348 12.1231 21.7263 12.5966 22.929C13.0795 24.1221 13.7756 25.0218 14.6847 25.6278C15.5937 26.2244 16.6875 26.5227 17.9659 26.5227C18.6951 26.5227 19.3485 26.4328 19.9261 26.2528C20.5038 26.0634 21.0057 25.7936 21.4318 25.4432C21.858 25.0928 22.2036 24.6714 22.4687 24.179C22.7434 23.6771 22.928 23.1136 23.0227 22.4886L31.0341 22.5454C30.9394 23.7765 30.5937 25.0312 29.9972 26.3096C29.4006 27.5786 28.553 28.7528 27.4545 29.8324C26.3655 30.9025 25.0161 31.7642 23.4062 32.4176C21.7964 33.071 19.9261 33.3977 17.7955 33.3977C15.125 33.3977 12.7292 32.8248 10.608 31.679C8.49621 30.5331 6.82481 28.8475 5.59375 26.6221C4.37216 24.3968 3.76136 21.6742 3.76136 18.4545C3.76136 15.2159 4.38636 12.4886 5.63636 10.2727C6.88636 8.04734 8.57197 6.36647 10.6932 5.2301C12.8144 4.08427 15.1818 3.51135 17.7955 3.51135C19.6326 3.51135 21.3229 3.7623 22.8665 4.26419C24.41 4.76609 25.7642 5.49999 26.929 6.4659C28.0937 7.42234 29.0312 8.60132 29.7415 10.0028C30.4517 11.4043 30.8826 13.0095 31.0341 14.8182Z" fill="black"/>
  <path d="M31.9308 33V11.1818H39.5445V15.3295H39.7717C40.1695 13.7954 40.7992 12.6733 41.6609 11.9631C42.5321 11.2528 43.5501 10.8977 44.7149 10.8977C45.0558 10.8977 45.392 10.9261 45.7234 10.9829C46.0643 11.0303 46.391 11.1013 46.7035 11.196V17.8864C46.3153 17.7538 45.8371 17.6543 45.2689 17.5881C44.7007 17.5218 44.213 17.4886 43.8058 17.4886C43.0388 17.4886 42.3475 17.6638 41.732 18.0142C41.1259 18.3551 40.6477 18.8381 40.2973 19.4631C39.9469 20.0786 39.7717 20.803 39.7717 21.6364V33H31.9308Z" fill="black"/>
  <path d="M55.7359 33.3977C53.3685 33.3977 51.342 32.929 49.6564 31.9915C47.9708 31.0445 46.6782 29.7282 45.7785 28.0426C44.8789 26.3475 44.4291 24.3826 44.4291 22.1477C44.4291 19.9129 44.8789 17.9526 45.7785 16.267C46.6782 14.572 47.9708 13.2557 49.6564 12.3182C51.342 11.3712 53.3685 10.8977 55.7359 10.8977C58.1034 10.8977 60.1299 11.3712 61.8155 12.3182C63.5011 13.2557 64.7937 14.572 65.6933 16.267C66.5929 17.9526 67.0428 19.9129 67.0428 22.1477C67.0428 24.3826 66.5929 26.3475 65.6933 28.0426C64.7937 29.7282 63.5011 31.0445 61.8155 31.9915C60.1299 32.929 58.1034 33.3977 55.7359 33.3977ZM55.7928 27.6023C56.4556 27.6023 57.0286 27.3797 57.5115 26.9346C57.9945 26.4896 58.3685 25.8551 58.6337 25.0312C58.8988 24.2074 59.0314 23.2273 59.0314 22.0909C59.0314 20.9451 58.8988 19.965 58.6337 19.1506C58.3685 18.3267 57.9945 17.6922 57.5115 17.2471C57.0286 16.8021 56.4556 16.5795 55.7928 16.5795C55.092 16.5795 54.4907 16.8021 53.9888 17.2471C53.4869 17.6922 53.1034 18.3267 52.8382 19.1506C52.5731 19.965 52.4405 20.9451 52.4405 22.0909C52.4405 23.2273 52.5731 24.2074 52.8382 25.0312C53.1034 25.8551 53.4869 26.4896 53.9888 26.9346C54.4907 27.3797 55.092 27.6023 55.7928 27.6023Z" fill="black"/>
  <path d="M70.8976 33L65.443 11.1818H73.2839L75.7839 24.4773H75.9544L78.7385 11.1818H86.3521L89.2499 24.3636H89.4203L91.8067 11.1818H99.6476L94.193 33H85.7271L82.6589 21.2954H82.4317L79.3635 33H70.8976Z" fill="black"/>
  <path d="M106.741 33.2841C105.188 33.2841 103.758 32.8769 102.451 32.0625C101.154 31.2481 100.112 30.0123 99.3263 28.3551C98.5498 26.6979 98.1615 24.6098 98.1615 22.0909C98.1615 19.4583 98.5687 17.3182 99.3831 15.6704C100.207 14.0227 101.268 12.8153 102.565 12.0483C103.872 11.2812 105.245 10.8977 106.684 10.8977C107.764 10.8977 108.711 11.0871 109.525 11.4659C110.34 11.8352 111.021 12.3324 111.571 12.9574C112.12 13.5729 112.537 14.25 112.821 14.9886H112.934V3.90908H120.775V33H112.991V29.4204H112.821C112.518 30.1591 112.082 30.822 111.514 31.4091C110.955 31.9867 110.273 32.446 109.468 32.7869C108.673 33.1184 107.764 33.2841 106.741 33.2841ZM109.639 27.2614C110.358 27.2614 110.974 27.053 111.485 26.6364C112.006 26.2102 112.404 25.6136 112.679 24.8466C112.963 24.0701 113.105 23.1515 113.105 22.0909C113.105 21.0114 112.963 20.0881 112.679 19.321C112.404 18.5445 112.006 17.9526 111.485 17.5454C110.974 17.1288 110.358 16.9204 109.639 16.9204C108.919 16.9204 108.304 17.1288 107.792 17.5454C107.29 17.9526 106.902 18.5445 106.627 19.321C106.362 20.0881 106.23 21.0114 106.23 22.0909C106.23 23.1704 106.362 24.0985 106.627 24.875C106.902 25.642 107.29 26.2339 107.792 26.6506C108.304 27.0578 108.919 27.2614 109.639 27.2614Z" fill="black"/>
  <path d="M137.393 13C137.317 12.053 136.962 11.3144 136.327 10.7841C135.702 10.2538 134.751 9.98863 133.472 9.98863C132.658 9.98863 131.99 10.0881 131.469 10.2869C130.958 10.4763 130.579 10.7367 130.333 11.0682C130.087 11.3996 129.959 11.7784 129.95 12.2045C129.931 12.5549 129.992 12.8721 130.134 13.1562C130.286 13.4309 130.522 13.6818 130.844 13.9091C131.166 14.1269 131.578 14.3257 132.08 14.5057C132.582 14.6856 133.179 14.8466 133.87 14.9886L136.256 15.5C137.866 15.8409 139.244 16.2907 140.39 16.8494C141.536 17.4081 142.473 18.0663 143.202 18.8239C143.932 19.572 144.467 20.4148 144.808 21.3523C145.158 22.2898 145.338 23.3125 145.347 24.4204C145.338 26.3333 144.86 27.9526 143.913 29.2784C142.966 30.6042 141.611 31.6127 139.85 32.304C138.098 32.9953 135.991 33.3409 133.529 33.3409C131.001 33.3409 128.794 32.9668 126.91 32.2187C125.035 31.4706 123.576 30.3201 122.535 28.767C121.503 27.2045 120.982 25.2064 120.972 22.7727H128.472C128.52 23.6629 128.742 24.411 129.14 25.017C129.538 25.6231 130.096 26.0824 130.816 26.3949C131.545 26.7074 132.412 26.8636 133.415 26.8636C134.258 26.8636 134.964 26.7595 135.532 26.5511C136.1 26.3428 136.531 26.054 136.825 25.6846C137.118 25.3153 137.27 24.8939 137.279 24.4204C137.27 23.9754 137.123 23.5871 136.839 23.2557C136.564 22.9148 136.11 22.6117 135.475 22.3466C134.841 22.072 133.984 21.8163 132.904 21.5795L130.006 20.9545C127.431 20.3958 125.399 19.4631 123.913 18.1562C122.435 16.84 121.701 15.0454 121.711 12.7727C121.701 10.9261 122.194 9.31154 123.188 7.92897C124.192 6.53692 125.579 5.45264 127.35 4.67613C129.13 3.89961 131.171 3.51135 133.472 3.51135C135.821 3.51135 137.852 3.90435 139.566 4.69033C141.28 5.47632 142.601 6.58427 143.529 8.01419C144.467 9.43465 144.94 11.0966 144.95 13H137.393Z" fill="black"/>
  <path d="M145.665 41.1818V11.1818H153.449V14.9886H153.62C153.904 14.25 154.321 13.5729 154.87 12.9574C155.419 12.3324 156.101 11.8352 156.915 11.4659C157.73 11.0871 158.677 10.8977 159.756 10.8977C161.195 10.8977 162.564 11.2812 163.861 12.0483C165.168 12.8153 166.229 14.0227 167.043 15.6704C167.867 17.3182 168.279 19.4583 168.279 22.0909C168.279 24.6098 167.886 26.6979 167.1 28.3551C166.323 30.0123 165.282 31.2481 163.975 32.0625C162.677 32.8769 161.252 33.2841 159.699 33.2841C158.677 33.2841 157.763 33.1184 156.958 32.7869C156.162 32.446 155.481 31.9867 154.912 31.4091C154.354 30.822 153.923 30.1591 153.62 29.4204H153.506V41.1818H145.665ZM153.336 22.0909C153.336 23.1515 153.473 24.0701 153.748 24.8466C154.032 25.6136 154.429 26.2102 154.941 26.6364C155.462 27.053 156.082 27.2614 156.802 27.2614C157.521 27.2614 158.132 27.0578 158.634 26.6506C159.145 26.2339 159.534 25.642 159.799 24.875C160.073 24.0985 160.211 23.1704 160.211 22.0909C160.211 21.0114 160.073 20.0881 159.799 19.321C159.534 18.5445 159.145 17.9526 158.634 17.5454C158.132 17.1288 157.521 16.9204 156.802 16.9204C156.082 16.9204 155.462 17.1288 154.941 17.5454C154.429 17.9526 154.032 18.5445 153.748 19.321C153.473 20.0881 153.336 21.0114 153.336 22.0909Z" fill="black"/>
  <path d="M179.275 33.3977C176.908 33.3977 174.881 32.929 173.195 31.9915C171.51 31.0445 170.217 29.7282 169.318 28.0426C168.418 26.3475 167.968 24.3826 167.968 22.1477C167.968 19.9129 168.418 17.9526 169.318 16.267C170.217 14.572 171.51 13.2557 173.195 12.3182C174.881 11.3712 176.908 10.8977 179.275 10.8977C181.642 10.8977 183.669 11.3712 185.355 12.3182C187.04 13.2557 188.333 14.572 189.232 16.267C190.132 17.9526 190.582 19.9129 190.582 22.1477C190.582 24.3826 190.132 26.3475 189.232 28.0426C188.333 29.7282 187.04 31.0445 185.355 31.9915C183.669 32.929 181.642 33.3977 179.275 33.3977ZM179.332 27.6023C179.995 27.6023 180.568 27.3797 181.051 26.9346C181.534 26.4896 181.908 25.8551 182.173 25.0312C182.438 24.2074 182.57 23.2273 182.57 22.0909C182.57 20.9451 182.438 19.965 182.173 19.1506C181.908 18.3267 181.534 17.6922 181.051 17.2471C180.568 16.8021 179.995 16.5795 179.332 16.5795C178.631 16.5795 178.03 16.8021 177.528 17.2471C177.026 17.6922 176.642 18.3267 176.377 19.1506C176.112 19.965 175.98 20.9451 175.98 22.0909C175.98 23.2273 176.112 24.2074 176.377 25.0312C176.642 25.8551 177.026 26.4896 177.528 26.9346C178.03 27.3797 178.631 27.6023 179.332 27.6023Z" fill="black"/>
  <path d="M203.975 11.1818V16.8636H189.6V11.1818H203.975ZM192.384 5.95454H200.225V25.9829C200.225 26.286 200.277 26.5417 200.381 26.75C200.485 26.9489 200.646 27.1004 200.864 27.2045C201.082 27.2992 201.361 27.3466 201.702 27.3466C201.939 27.3466 202.214 27.3182 202.526 27.2614C202.848 27.2045 203.085 27.1572 203.236 27.1193L204.373 32.6307C204.022 32.7348 203.52 32.8627 202.867 33.0142C202.223 33.1657 201.456 33.2651 200.566 33.3125C198.767 33.4072 197.256 33.2225 196.035 32.7585C194.813 32.285 193.895 31.5417 193.279 30.5284C192.663 29.5151 192.365 28.2462 192.384 26.7216V5.95454Z" fill="black"/>
  <path d="M31.0341 14.8182H23.0227C22.9659 14.1553 22.8144 13.554 22.5682 13.0142C22.3314 12.4744 22 12.0104 21.5739 11.6221C21.1572 11.2244 20.6506 10.9214 20.054 10.7131C19.4574 10.4953 18.7803 10.3864 18.0227 10.3864C16.697 10.3864 15.5748 10.7083 14.6562 11.3523C13.7472 11.9962 13.0559 12.9195 12.5824 14.1221C12.1184 15.3248 11.8864 16.7689 11.8864 18.4545C11.8864 20.2348 12.1231 21.7263 12.5966 22.929C13.0795 24.1221 13.7756 25.0218 14.6847 25.6278C15.5937 26.2244 16.6875 26.5227 17.9659 26.5227C18.6951 26.5227 19.3485 26.4328 19.9261 26.2528C20.5038 26.0634 21.0057 25.7936 21.4318 25.4432C21.858 25.0928 22.2036 24.6714 22.4687 24.179C22.7434 23.6771 22.928 23.1136 23.0227 22.4886L31.0341 22.5454C30.9394 23.7765 30.5937 25.0312 29.9972 26.3096C29.4006 27.5786 28.553 28.7528 27.4545 29.8324C26.3655 30.9025 25.0161 31.7642 23.4062 32.4176C21.7964 33.071 19.9261 33.3977 17.7955 33.3977C15.125 33.3977 12.7292 32.8248 10.608 31.679C8.49621 30.5331 6.82481 28.8475 5.59375 26.6221C4.37216 24.3968 3.76136 21.6742 3.76136 18.4545C3.76136 15.2159 4.38636 12.4886 5.63636 10.2727C6.88636 8.04734 8.57197 6.36647 10.6932 5.2301C12.8144 4.08427 15.1818 3.51135 17.7955 3.51135C19.6326 3.51135 21.3229 3.7623 22.8665 4.26419C24.41 4.76609 25.7642 5.49999 26.929 6.4659C28.0937 7.42234 29.0312 8.60132 29.7415 10.0028C30.4517 11.4043 30.8826 13.0095 31.0341 14.8182Z" stroke="#fff" stroke-width="6" mask="url(#path-1-outside-1_101_4)"/>
  <path d="M31.9308 33V11.1818H39.5445V15.3295H39.7717C40.1695 13.7954 40.7992 12.6733 41.6609 11.9631C42.5321 11.2528 43.5501 10.8977 44.7149 10.8977C45.0558 10.8977 45.392 10.9261 45.7234 10.9829C46.0643 11.0303 46.391 11.1013 46.7035 11.196V17.8864C46.3153 17.7538 45.8371 17.6543 45.2689 17.5881C44.7007 17.5218 44.213 17.4886 43.8058 17.4886C43.0388 17.4886 42.3475 17.6638 41.732 18.0142C41.1259 18.3551 40.6477 18.8381 40.2973 19.4631C39.9469 20.0786 39.7717 20.803 39.7717 21.6364V33H31.9308Z" stroke="#fff" stroke-width="6" mask="url(#path-1-outside-1_101_4)"/>
  <path d="M55.7359 33.3977C53.3685 33.3977 51.342 32.929 49.6564 31.9915C47.9708 31.0445 46.6782 29.7282 45.7785 28.0426C44.8789 26.3475 44.4291 24.3826 44.4291 22.1477C44.4291 19.9129 44.8789 17.9526 45.7785 16.267C46.6782 14.572 47.9708 13.2557 49.6564 12.3182C51.342 11.3712 53.3685 10.8977 55.7359 10.8977C58.1034 10.8977 60.1299 11.3712 61.8155 12.3182C63.5011 13.2557 64.7937 14.572 65.6933 16.267C66.5929 17.9526 67.0428 19.9129 67.0428 22.1477C67.0428 24.3826 66.5929 26.3475 65.6933 28.0426C64.7937 29.7282 63.5011 31.0445 61.8155 31.9915C60.1299 32.929 58.1034 33.3977 55.7359 33.3977ZM55.7928 27.6023C56.4556 27.6023 57.0286 27.3797 57.5115 26.9346C57.9945 26.4896 58.3685 25.8551 58.6337 25.0312C58.8988 24.2074 59.0314 23.2273 59.0314 22.0909C59.0314 20.9451 58.8988 19.965 58.6337 19.1506C58.3685 18.3267 57.9945 17.6922 57.5115 17.2471C57.0286 16.8021 56.4556 16.5795 55.7928 16.5795C55.092 16.5795 54.4907 16.8021 53.9888 17.2471C53.4869 17.6922 53.1034 18.3267 52.8382 19.1506C52.5731 19.965 52.4405 20.9451 52.4405 22.0909C52.4405 23.2273 52.5731 24.2074 52.8382 25.0312C53.1034 25.8551 53.4869 26.4896 53.9888 26.9346C54.4907 27.3797 55.092 27.6023 55.7928 27.6023Z" stroke="#fff" stroke-width="6" mask="url(#path-1-outside-1_101_4)"/>
  <path d="M70.8976 33L65.443 11.1818H73.2839L75.7839 24.4773H75.9544L78.7385 11.1818H86.3521L89.2499 24.3636H89.4203L91.8067 11.1818H99.6476L94.193 33H85.7271L82.6589 21.2954H82.4317L79.3635 33H70.8976Z" stroke="#fff" stroke-width="6" mask="url(#path-1-outside-1_101_4)"/>
  <path d="M106.741 33.2841C105.188 33.2841 103.758 32.8769 102.451 32.0625C101.154 31.2481 100.112 30.0123 99.3263 28.3551C98.5498 26.6979 98.1615 24.6098 98.1615 22.0909C98.1615 19.4583 98.5687 17.3182 99.3831 15.6704C100.207 14.0227 101.268 12.8153 102.565 12.0483C103.872 11.2812 105.245 10.8977 106.684 10.8977C107.764 10.8977 108.711 11.0871 109.525 11.4659C110.34 11.8352 111.021 12.3324 111.571 12.9574C112.12 13.5729 112.537 14.25 112.821 14.9886H112.934V3.90908H120.775V33H112.991V29.4204H112.821C112.518 30.1591 112.082 30.822 111.514 31.4091C110.955 31.9867 110.273 32.446 109.468 32.7869C108.673 33.1184 107.764 33.2841 106.741 33.2841ZM109.639 27.2614C110.358 27.2614 110.974 27.053 111.485 26.6364C112.006 26.2102 112.404 25.6136 112.679 24.8466C112.963 24.0701 113.105 23.1515 113.105 22.0909C113.105 21.0114 112.963 20.0881 112.679 19.321C112.404 18.5445 112.006 17.9526 111.485 17.5454C110.974 17.1288 110.358 16.9204 109.639 16.9204C108.919 16.9204 108.304 17.1288 107.792 17.5454C107.29 17.9526 106.902 18.5445 106.627 19.321C106.362 20.0881 106.23 21.0114 106.23 22.0909C106.23 23.1704 106.362 24.0985 106.627 24.875C106.902 25.642 107.29 26.2339 107.792 26.6506C108.304 27.0578 108.919 27.2614 109.639 27.2614Z" stroke="#fff" stroke-width="6" mask="url(#path-1-outside-1_101_4)"/>
  <path d="M137.393 13C137.317 12.053 136.962 11.3144 136.327 10.7841C135.702 10.2538 134.751 9.98863 133.472 9.98863C132.658 9.98863 131.99 10.0881 131.469 10.2869C130.958 10.4763 130.579 10.7367 130.333 11.0682C130.087 11.3996 129.959 11.7784 129.95 12.2045C129.931 12.5549 129.992 12.8721 130.134 13.1562C130.286 13.4309 130.522 13.6818 130.844 13.9091C131.166 14.1269 131.578 14.3257 132.08 14.5057C132.582 14.6856 133.179 14.8466 133.87 14.9886L136.256 15.5C137.866 15.8409 139.244 16.2907 140.39 16.8494C141.536 17.4081 142.473 18.0663 143.202 18.8239C143.932 19.572 144.467 20.4148 144.808 21.3523C145.158 22.2898 145.338 23.3125 145.347 24.4204C145.338 26.3333 144.86 27.9526 143.913 29.2784C142.966 30.6042 141.611 31.6127 139.85 32.304C138.098 32.9953 135.991 33.3409 133.529 33.3409C131.001 33.3409 128.794 32.9668 126.91 32.2187C125.035 31.4706 123.576 30.3201 122.535 28.767C121.503 27.2045 120.982 25.2064 120.972 22.7727H128.472C128.52 23.6629 128.742 24.411 129.14 25.017C129.538 25.6231 130.096 26.0824 130.816 26.3949C131.545 26.7074 132.412 26.8636 133.415 26.8636C134.258 26.8636 134.964 26.7595 135.532 26.5511C136.1 26.3428 136.531 26.054 136.825 25.6846C137.118 25.3153 137.27 24.8939 137.279 24.4204C137.27 23.9754 137.123 23.5871 136.839 23.2557C136.564 22.9148 136.11 22.6117 135.475 22.3466C134.841 22.072 133.984 21.8163 132.904 21.5795L130.006 20.9545C127.431 20.3958 125.399 19.4631 123.913 18.1562C122.435 16.84 121.701 15.0454 121.711 12.7727C121.701 10.9261 122.194 9.31154 123.188 7.92897C124.192 6.53692 125.579 5.45264 127.35 4.67613C129.13 3.89961 131.171 3.51135 133.472 3.51135C135.821 3.51135 137.852 3.90435 139.566 4.69033C141.28 5.47632 142.601 6.58427 143.529 8.01419C144.467 9.43465 144.94 11.0966 144.95 13H137.393Z" stroke="#fff" stroke-width="6" mask="url(#path-1-outside-1_101_4)"/>
  <path d="M145.665 41.1818V11.1818H153.449V14.9886H153.62C153.904 14.25 154.321 13.5729 154.87 12.9574C155.419 12.3324 156.101 11.8352 156.915 11.4659C157.73 11.0871 158.677 10.8977 159.756 10.8977C161.195 10.8977 162.564 11.2812 163.861 12.0483C165.168 12.8153 166.229 14.0227 167.043 15.6704C167.867 17.3182 168.279 19.4583 168.279 22.0909C168.279 24.6098 167.886 26.6979 167.1 28.3551C166.323 30.0123 165.282 31.2481 163.975 32.0625C162.677 32.8769 161.252 33.2841 159.699 33.2841C158.677 33.2841 157.763 33.1184 156.958 32.7869C156.162 32.446 155.481 31.9867 154.912 31.4091C154.354 30.822 153.923 30.1591 153.62 29.4204H153.506V41.1818H145.665ZM153.336 22.0909C153.336 23.1515 153.473 24.0701 153.748 24.8466C154.032 25.6136 154.429 26.2102 154.941 26.6364C155.462 27.053 156.082 27.2614 156.802 27.2614C157.521 27.2614 158.132 27.0578 158.634 26.6506C159.145 26.2339 159.534 25.642 159.799 24.875C160.073 24.0985 160.211 23.1704 160.211 22.0909C160.211 21.0114 160.073 20.0881 159.799 19.321C159.534 18.5445 159.145 17.9526 158.634 17.5454C158.132 17.1288 157.521 16.9204 156.802 16.9204C156.082 16.9204 155.462 17.1288 154.941 17.5454C154.429 17.9526 154.032 18.5445 153.748 19.321C153.473 20.0881 153.336 21.0114 153.336 22.0909Z" stroke="#fff" stroke-width="6" mask="url(#path-1-outside-1_101_4)"/>
  <path d="M179.275 33.3977C176.908 33.3977 174.881 32.929 173.195 31.9915C171.51 31.0445 170.217 29.7282 169.318 28.0426C168.418 26.3475 167.968 24.3826 167.968 22.1477C167.968 19.9129 168.418 17.9526 169.318 16.267C170.217 14.572 171.51 13.2557 173.195 12.3182C174.881 11.3712 176.908 10.8977 179.275 10.8977C181.642 10.8977 183.669 11.3712 185.355 12.3182C187.04 13.2557 188.333 14.572 189.232 16.267C190.132 17.9526 190.582 19.9129 190.582 22.1477C190.582 24.3826 190.132 26.3475 189.232 28.0426C188.333 29.7282 187.04 31.0445 185.355 31.9915C183.669 32.929 181.642 33.3977 179.275 33.3977ZM179.332 27.6023C179.995 27.6023 180.568 27.3797 181.051 26.9346C181.534 26.4896 181.908 25.8551 182.173 25.0312C182.438 24.2074 182.57 23.2273 182.57 22.0909C182.57 20.9451 182.438 19.965 182.173 19.1506C181.908 18.3267 181.534 17.6922 181.051 17.2471C180.568 16.8021 179.995 16.5795 179.332 16.5795C178.631 16.5795 178.03 16.8021 177.528 17.2471C177.026 17.6922 176.642 18.3267 176.377 19.1506C176.112 19.965 175.98 20.9451 175.98 22.0909C175.98 23.2273 176.112 24.2074 176.377 25.0312C176.642 25.8551 177.026 26.4896 177.528 26.9346C178.03 27.3797 178.631 27.6023 179.332 27.6023Z" stroke="#fff" stroke-width="6" mask="url(#path-1-outside-1_101_4)"/>
  <path d="M203.975 11.1818V16.8636H189.6V11.1818H203.975ZM192.384 5.95454H200.225V25.9829C200.225 26.286 200.277 26.5417 200.381 26.75C200.485 26.9489 200.646 27.1004 200.864 27.2045C201.082 27.2992 201.361 27.3466 201.702 27.3466C201.939 27.3466 202.214 27.3182 202.526 27.2614C202.848 27.2045 203.085 27.1572 203.236 27.1193L204.373 32.6307C204.022 32.7348 203.52 32.8627 202.867 33.0142C202.223 33.1657 201.456 33.2651 200.566 33.3125C198.767 33.4072 197.256 33.2225 196.035 32.7585C194.813 32.285 193.895 31.5417 193.279 30.5284C192.663 29.5151 192.365 28.2462 192.384 26.7216V5.95454Z" stroke="#fff" stroke-width="6" mask="url(#path-1-outside-1_101_4)"/>
</svg>
